<?xml version="1.0" encoding="UTF-8"?>
<svg width="1368px" height="246px" viewBox="0 0 1368 246" version="1.1" xmlns="http://www.w3.org/2000/svg" xmlns:xlink="http://www.w3.org/1999/xlink">
    <title>5191F576-225F-429F-81AE-C50A39FAAC6C</title>
    <defs>
        <path d="M1105.66347,44.7669709 C1015.54977,103.877669 980.643473,190.105885 791.798036,123.286393 C739.614251,104.822372 701.392168,118.252219 664.31509,131.683044 C622.241581,146.923041 581.643018,162.163527 523.791545,130.799006 C515.568072,126.33723 507.558491,122.268306 499.7,118.559944 C409.366946,75.8790493 340.738491,57.1537796 235.326491,90.765333 L235.310563,90.765333 C228.562491,92.9057132 221.646946,95.1762286 214.563473,97.561713 C107.130419,133.690354 42.3479281,141.533685 0,113.249355 L0,244.656667 L1368,244.656667 L1368,23.9986776 C1342.26149,12.269883 1295.73993,0 1246.17291,0 C1215.65049,0 1183.98125,4.64866149 1155.27554,16.9390919 C1140,23.4800941 1123.76695,32.8918965 1105.66347,44.7669709 Z" id="path-1"></path>
    </defs>
    <g id="NP-Checkout-PRI2009-2621" stroke="none" stroke-width="1" fill="none" fill-rule="evenodd" opacity="0.0930989583">
        <g id="Checkout-pago-efectivo_referencia-" transform="translate(0.000000, -163.000000)">
            <g id="Group-2" transform="translate(0.000000, 163.000000)">
                <g id="Group-3" transform="translate(0.000000, 0.343333)">
                    <mask id="mask-2" fill="white">
                        <use xlink:href="#path-1"></use>
                    </mask>
                    <g id="Clip-2"></g>
                    <path d="M1104.04701,29.7101668 C1014.06505,68.93973 979.209784,126.166177 790.640436,81.8205752 C738.532944,69.5666939 700.366741,78.4795816 663.343869,87.3931186 C621.331871,97.5073354 580.792663,107.621877 523.025768,86.8064155 C514.814317,83.8453017 506.816446,81.1449087 498.969444,78.6838075 C408.768456,50.3580914 340.240335,37.9308292 234.982446,60.237562 L234.966542,60.237562 C228.228335,61.6580524 221.322901,63.1649087 214.249784,64.7480656 C106.973796,88.7252952 42.286016,93.9306216 0,75.1593678 L0,244 L1366,244 L1366,15.9270261 C1340.29911,8.14306312 1293.84557,0 1244.35102,0 C1213.87322,0 1182.25028,3.08514304 1153.58655,11.2418428 C1138.33333,15.5828616 1122.12401,21.8291234 1104.04701,29.7101668 Z" id="Fill-1" fill="#8DA5BC" mask="url(#mask-2)"></path>
                </g>
            </g>
        </g>
    </g>
</svg>