<?xml version="1.0" encoding="UTF-8"?>
<svg width="344px" height="272px" viewBox="0 0 344 272" version="1.1" xmlns="http://www.w3.org/2000/svg" xmlns:xlink="http://www.w3.org/1999/xlink">
    <title>BF74068B-6601-44D9-8F7B-509B7F09CA5B</title>
    <defs>
        <polygon id="path-1" points="0.00116630493 0.433882182 29.5775139 0.433882182 29.5775139 33.1654545 0.00116630493 33.1654545"></polygon>
        <polygon id="path-3" points="0.414201424 0.588199091 28.277495 0.588199091 28.277495 30.6994567 0.414201424 30.6994567"></polygon>
        <linearGradient x1="105.304035%" y1="126.353322%" x2="46.0704412%" y2="72.7268624%" id="linearGradient-5">
            <stop stop-color="#353C44" offset="0%"></stop>
            <stop stop-color="#1A2735" offset="49.4750099%"></stop>
            <stop stop-color="#435365" offset="100%"></stop>
        </linearGradient>
        <polygon id="path-6" points="0.302830826 0.4329 39.155158 0.4329 39.155158 42.5864407 0.302830826 42.5864407"></polygon>
        <polygon id="path-8" points="0 0.0652288235 10.2195939 0.0652288235 10.2195939 9.50116281 0 9.50116281"></polygon>
        <polygon id="path-10" points="0.397508366 0.311912042 31.634303 0.311912042 31.634303 42.0392798 0.397508366 42.0392798"></polygon>
    </defs>
    <g id="NP-Checkout-PRI2009-2621" stroke="none" stroke-width="1" fill="none" fill-rule="evenodd">
        <g id="Checkout-pago-efectivo_referencia-" transform="translate(-125.000000, -163.000000)">
            <g id="Group-2" transform="translate(0.000000, 163.000000)">
                <g id="sucess_checkout" transform="translate(125.714286, 0.000000)">
                    <g id="Group-9" transform="translate(101.285714, 98.000000)">
                        <ellipse id="Oval" fill="#E8EBEF" cx="74.8712225" cy="164.364091" rx="74.8712225" ry="9.26681818"></ellipse>
                        <g id="Group-19" transform="translate(30.339973, 0.000000)">
                            <g id="Group-3" transform="translate(0.000000, 100.128848)">
                                <mask id="mask-2" fill="white">
                                    <use xlink:href="#path-1"></use>
                                </mask>
                                <g id="Clip-2"></g>
                                <path d="M29.5775139,10.4474108 L14.7923381,31.6318449 C13.666823,33.2706085 11.4498993,33.6461585 9.84689295,32.5195085 L1.52490244,26.6814131 C-0.0781039273,25.5547631 -0.487382149,23.3321899 0.638132961,21.7309813 L15.4778792,0.433882182 C18.8510138,5.384314 25.2800926,8.95886718 29.5775139,10.4474108" id="Fill-1" fill="#435365" mask="url(#mask-2)"></path>
                            </g>
                            <g id="Group-6" transform="translate(45.317183, 1.120212)">
                                <mask id="mask-4" fill="white">
                                    <use xlink:href="#path-3"></use>
                                </mask>
                                <g id="Clip-5"></g>
                            </g>
                            <path d="M82.2643127,39.8896222 C84.2674861,36.832858 87.2722463,32.2477116 91.2785933,26.1341831 C92.3870551,24.440794 94.6619599,23.990134 96.3229474,25.1509249 L104.542618,30.9139104 C107.161999,32.7506913 107.499653,35.0722731 106.244534,36.6973804 C101.77999,42.4603658 92.9975618,55.0173922 92.9975618,55.0173922 C88.1843258,48.2150478 84.6065761,43.1724578 82.2643127,39.8896222 Z" id="Fill-7" fill="#435365"></path>
                            <path d="M47.7491259,15.3842089 C49.7522993,12.3274447 52.7570595,7.74229828 56.7634065,1.62876979 C57.8718683,-0.064619305 60.1467731,-0.515279305 61.8077606,0.645511604 L70.0274315,6.40849706 C72.6468121,8.24527797 72.9844667,10.5668598 71.7293468,12.1919671 C67.2648035,17.9549525 58.482375,30.5119789 58.482375,30.5119789 C53.669139,23.7096345 50.0913893,18.6670445 47.7491259,15.3842089 Z" id="Fill-7-Copy" fill="#435365"></path>
                            <path d="M111.181452,75.3117728 L103.371059,86.509991 C96.7543948,95.9704369 87.7161674,102.726923 77.6547445,106.519978 C77.757064,106.311718 77.8934901,106.076146 77.9958097,105.833746 L78.0299162,105.833746 C78.2004488,105.495751 78.4050879,105.150927 78.5756205,104.775377 L78.7802596,104.331546 C78.9848987,103.921855 79.2236443,103.478023 79.4282834,103.00005 C79.5647095,102.726923 79.6670291,102.453796 79.8034551,102.180668 C79.9057747,101.945096 80.0080942,101.736836 80.1104138,101.49785 C80.451479,100.74675 80.7925442,99.9273682 81.1336094,99.0738455 C82.0203788,96.8581005 82.9412548,94.2975323 83.6915982,91.4945637 C83.8962374,90.8117455 84.1008765,90.0947864 84.2714091,89.3436864 C84.5101547,88.387741 84.7147938,87.4352096 84.9194329,86.4075682 C84.9535394,86.2368637 84.9876459,86.0354323 85.055859,85.8271728 C85.2263916,84.8370864 85.3969242,83.847 85.5333502,82.8227728 C85.5333502,82.72035 85.5674568,82.5837864 85.5674568,82.4847778 C85.6697763,81.6619819 85.7720959,80.876741 85.8403089,80.0232182 C86.3519067,74.529946 86.0790545,68.5860137 84.5101547,62.5806278 C84.3396221,62.0002323 84.1690895,61.4198369 83.9985569,60.8394414 C81.5428876,52.8470546 76.6315489,44.7590732 67.9343867,37.4495046 L78.8484726,45.0970682 L92.9685713,55.001346 L93.0026778,55.0354869 L109.680765,66.7082637 C112.4775,68.6577096 113.15963,72.5156323 111.181452,75.3117728" id="Fill-9" fill="#435365"></path>
                            <path d="M85.5671157,82.4844364 C85.5671157,82.583445 85.5330092,82.7200086 85.5330092,82.8224314 C85.3965831,83.8466586 85.2260505,84.836745 85.0555179,85.8268314 C84.9873049,86.0350909 84.9531984,86.2365223 84.9190918,86.4072268 C84.7144527,87.4348682 84.5098136,88.3873995 84.271068,89.343345 C84.1005354,90.094445 83.8958963,90.8114041 83.6912572,91.4942223 C82.9409138,94.2971909 82.0200378,96.8577591 81.1332683,99.0735041 C80.7922031,99.9270268 80.4511379,100.746409 80.1100727,101.497509 C80.0077532,101.736495 79.9054336,101.944755 79.8031141,102.180327 C79.666688,102.453454 79.5643684,102.726581 79.4279424,102.999709 C79.2233033,103.477681 78.9845576,103.921513 78.7799185,104.331204 L78.5752794,104.775036 C78.4047468,105.150586 78.2001077,105.495409 78.0295751,105.836818 L77.6547445,106.519978 C77.3989456,106.6562 77.1579575,106.727485 76.90406,106.826905 C75.5397993,107.267322 74.209645,107.711154 72.8453843,108.090118 C72.367893,108.226682 71.9245083,108.363245 71.447017,108.462254 C68.8549216,109.114345 66.2287197,109.554763 63.5684113,109.82789 C63.0568135,109.862031 62.5111092,109.933727 61.9654049,109.967868 C61.4538071,109.998595 60.9081028,110.032736 60.3965051,110.032736 C59.8849073,110.070291 59.407416,110.104432 58.8958182,110.104432 L57.0881728,110.104432 C56.2014033,110.070291 55.3146338,110.032736 54.4278643,109.998595 C53.9844796,109.967868 53.5069883,109.933727 53.0294971,109.862031 C52.6202188,109.862031 52.2109406,109.797164 51.7675559,109.725468 C50.8807864,109.626459 49.9940169,109.524036 49.1072474,109.387473 C48.5956497,109.281636 48.0840519,109.216768 47.6065606,109.114345 C46.9244303,108.974368 46.2764064,108.837804 45.6283826,108.70124 C45.2191043,108.598818 44.8098261,108.499809 44.4346544,108.397386 C43.9912697,108.29155 43.5478849,108.154986 43.1386067,108.055977 C42.0471981,107.745295 40.989896,107.4073 39.932594,107.028336 C39.5574223,106.929327 39.1822506,106.792764 38.8070789,106.6562 C37.4769246,106.140672 36.1467704,105.594418 34.8507227,104.983295 C34.475551,104.812591 34.1344858,104.641886 33.7934206,104.467768 C33.3159294,104.266336 32.8384381,103.993209 32.3609469,103.750809 C30.792047,102.934841 29.2572537,102.009622 27.7565669,101.019536 C27.2790756,100.715682 26.8015844,100.408414 26.3240931,100.06359 C23.9366368,98.3941 21.7197131,96.5504909 19.673322,94.5327632 C0.334926011,76.0283905 -3.10983236,45.6122545 12.7496987,22.9392768 L20.5600915,11.7786136 C22.504163,8.975645 26.3581996,8.29282682 29.1549341,10.2729995 L45.7307021,21.8843227 L59.8849073,31.8193273 L67.9340456,37.4491632 C76.6312079,44.7587318 81.5425465,52.8467132 83.9982158,60.8391 C84.202855,61.4194955 84.339281,61.9998909 84.5098136,62.5802864 C86.0787135,68.5856723 86.3515656,74.5296045 85.8399678,80.0228768 C85.7717548,80.8422586 85.6694353,81.6616405 85.5671157,82.4844364 Z" id="Fill-11" fill="url(#linearGradient-5)"></path>
                            <path d="M79.4282834,103.001074 C79.3600704,103.20592 79.2577508,103.376624 79.1895378,103.547329 L78.7802596,104.33257 C78.9848987,103.922879 79.2236443,103.479047 79.4282834,103.001074" id="Fill-13" fill="#FFFFFF"></path>
                        </g>
                    </g>
                    <g id="Group-10" transform="translate(194.285714, 0.000000)">
                        <path d="M47.9467569,36.1163316 C47.9467569,36.1163316 49.0090853,39.3750657 51.2003953,40.0401182 C53.3914762,40.7051706 57.3088981,40.3062309 61.8239084,37.1805532 C66.3391476,34.0548755 68.6630769,34.4538152 68.6630769,34.4538152 C68.6630769,34.4538152 68.1319127,31.7936054 66.5381911,30.7963708 C64.9446985,29.7986774 63.1519334,31.1953105 60.8280041,32.3258309 C58.5040748,33.4563512 50.8151352,39.2459093 47.1565385,31.9950252 L47.7697021,35.074592 L47.9467569,36.1163316 Z" id="Fill-1" fill="#5485BC" transform="translate(57.909808, 35.384425) rotate(-180.000000) translate(-57.909808, -35.384425) "></path>
                        <path d="M55.8380769,30.6521694 L56.4447337,33.7180018 L56.6199095,34.7550954 C56.6199095,34.7550954 57.6709644,37.999296 59.8390201,38.661154 C61.7287887,39.2385098 64.9168526,39.009897 68.6630769,36.8804408 C67.244674,35.4920919 66.897495,33.7910848 66.9462179,32.3353626 C63.6699996,34.1149339 58.5964728,36.152808 55.8380769,30.6521694 Z" id="Fill-3" fill="#5485BC" transform="translate(62.250577, 34.792893) rotate(-180.000000) translate(-62.250577, -34.792893) "></path>
                        <path d="M68.6630769,40.0134556 C68.6630769,40.0134556 68.6630769,44.3349189 63.6162093,47.5046603 C57.9046999,51.0917186 54.1934803,53.3817229 53.6663585,55.8908641 C53.6663585,55.8908641 52.2386516,51.786032 53.2269766,49.5737052 C54.2153017,47.3613784 58.7841455,45.8317476 63.0890874,42.6620062 C66.0190574,40.5048054 68.4112222,37.0049918 68.3200727,34.7928928 L68.6630769,40.0134556 Z" id="Fill-5" fill="#1F68F8" transform="translate(60.770769, 45.341878) rotate(-180.000000) translate(-60.770769, -45.341878) "></path>
                        <path d="M54.3894878,55.8908641 C55.8150102,54.9281854 57.5039395,53.8788016 59.4162817,52.685748 C64.5196154,49.5023653 64.5196154,45.162304 64.5196154,45.162304 L64.1727735,39.9195026 C64.2649429,42.1408929 61.8460138,45.6559971 58.8832623,47.822253 C56.8003722,49.3456555 54.6577214,50.4911242 52.8784615,51.5155717 C52.9099508,52.9227573 53.2370257,54.6227728 54.3894878,55.8908641" id="Fill-7" fill="#1F68F8" transform="translate(58.699038, 47.905183) rotate(-180.000000) translate(-58.699038, -47.905183) "></path>
                        <path d="M52.73884,50.7642543 C52.73884,50.7642543 52.3412374,54.7079263 53.6337318,55.8908238 C54.9259975,57.0739481 67.2532801,55.5951561 69.1422928,59.6372329 C69.1422928,59.6372329 69.6393533,56.08786 68.5457745,53.8204697 C67.4521958,51.5530794 62.5808202,51.8487471 59.7973731,51.5530794 C57.0136972,51.2571849 53.3353583,51.2571849 52.73884,50.7642543" id="Fill-9" fill="#5485BC" transform="translate(60.968077, 55.200744) rotate(-180.000000) translate(-60.968077, -55.200744) "></path>
                        <path d="M52.6811538,53.2326117 C54.0293384,53.6826935 55.0745341,54.3347408 55.5269357,55.2993322 C55.5269357,55.2993322 55.8865903,52.7391211 55.3273331,50.567077 C54.6623768,51.9589033 53.5334544,52.7809307 52.6811538,53.2326117" id="Fill-11" fill="#5485BC" transform="translate(54.160962, 52.933205) rotate(-180.000000) translate(-54.160962, -52.933205) "></path>
                        <g id="Group-51" transform="translate(43.517473, 30.825594) rotate(-180.000000) translate(-43.517473, -30.825594) translate(42.017473, 30.325594)" fill="#1F68F8">
                            <path d="M0.0206620348,0.0329557925 C0.0206620348,0.0329557925 1.01481135,0.221068965 2.46878624,0.802826368 C1.13446686,-0.211527994 0.0206620348,0.0329557925 0.0206620348,0.0329557925" id="Fill-49"></path>
                        </g>
                        <path d="M52.0892308,22.0490827 C52.0892308,22.0490827 57.4002434,28.0617466 69.5509727,23.8038712 C69.5509727,23.8038712 69.80155,23.6864283 70.2415385,23.4903855 C65.6504242,23.0628843 61.7112204,21.7202884 59.0947104,20.596127 C57.0814508,21.1582077 54.7773667,21.6615669 52.0892308,22.0490827" id="Fill-54" fill="#435365" transform="translate(61.165385, 22.962255) rotate(-180.000000) translate(-61.165385, -22.962255) "></path>
                        <path d="M61.3472255,62.989247 C61.3472255,62.989247 63.8574246,64.4436343 63.2372309,67.560113 C62.6170372,70.6765918 59.1620635,74.2382818 60.1364906,78.9574751 C60.1364906,78.9574751 58.0989069,79.7587178 56.2385539,78.1562324 C56.2385539,78.1562324 56.0613231,75.3957851 57.655944,72.2348311 C59.2505648,69.0738771 61.9083422,64.4734373 59.2505648,62.989247 L61.3472255,62.989247 Z" id="Fill-92" fill="#1F68F8" transform="translate(59.784231, 71.073516) rotate(-180.000000) translate(-59.784231, -71.073516) "></path>
                        <path d="M61.1045379,68.7073888 L58.9866951,68.7073888 C61.6713235,70.1875321 58.9866951,74.7754276 57.3759641,77.9277625 C57.1619219,78.3468392 56.9801358,78.7583712 56.8246154,79.1577858 C58.7936194,78.5729531 60.5389043,77.0886945 61.345537,75.5721992 C62.843602,72.7554915 62.5166635,70.159868 62.5157419,70.1523232 C61.9236122,69.1767638 61.1045379,68.7073888 61.1045379,68.7073888" id="Fill-94" fill="#1F68F8" transform="translate(59.685577, 73.932587) rotate(-180.000000) translate(-59.685577, -73.932587) "></path>
                        <path d="M58.6504728,77.859101 C58.6504728,77.859101 60.0299475,80.7418503 63.4113902,80.030885 C66.4051779,79.4015846 69.252793,75.1897785 72.0875779,72.8121165 C72.6438584,72.3456884 73.177686,72.1901362 73.7930769,72.3159505 C73.7930769,72.3159505 72.2211494,71.159145 70.485866,71.2794692 C66.844841,71.5315554 64.5386142,75.585293 62.6995437,76.6103366 C60.8604733,77.6353802 58.8388017,77.3885554 58.2057692,74.3001568 L58.6504728,77.859101 Z" id="Fill-96" fill="#5485BC" transform="translate(65.999423, 75.707183) rotate(-180.000000) translate(-65.999423, -75.707183) "></path>
                        <path d="M73.7930769,74.5936875 C73.5126041,73.1334346 72.6335308,72.0212545 71.816303,71.2706937 C70.4650586,72.4985919 69.3696401,73.8858322 68.4036179,74.4283758 C66.5717587,75.4572113 64.5582426,75.2094734 63.9276923,72.1096503 L64.3704239,75.6817596 C64.3704239,75.6817596 65.7444895,78.5749431 69.1129014,77.8615774 C70.7076482,77.5238365 72.2610885,76.1570306 73.7930769,74.5936875" id="Fill-98" fill="#5485BC" transform="translate(68.860385, 74.622708) rotate(-180.000000) translate(-68.860385, -74.622708) "></path>
                        <path d="M74.5823077,78.4277125 C74.5823077,78.4277125 65.1115385,85.9598038 66.3124308,92.7630197 C66.3124308,92.7630197 64.1692693,89.5303586 65.6090644,83.1999205 C67.0486331,76.8697103 72.7081737,73.6368213 72.7081737,73.6368213 C72.7081737,73.6368213 74.5766463,75.7730936 74.5823077,78.4277125" id="Fill-100" fill="#1F68F8" transform="translate(69.846923, 83.199920) rotate(-180.000000) translate(-69.846923, -83.199920) "></path>
                        <path d="M72.9673848,73.6368213 C72.8808669,73.9161753 72.7999915,74.199644 72.7311063,74.492257 C71.236321,80.8435581 73.4615714,84.0872184 73.4615714,84.0872184 C73.1096222,82.1614594 73.6400147,80.1776351 74.5823077,78.3216003 C73.5826495,77.0402757 73.1420664,75.2640236 72.9673848,73.6368213" id="Fill-102" fill="#1F68F8" transform="translate(73.398462, 78.862020) rotate(-180.000000) translate(-73.398462, -78.862020) "></path>
                        <path d="M1.41489941,37.1252662 C1.80592868,37.8443708 1.93774152,38.6361168 1.782026,39.4413403 C1.71147829,39.8054612 1.53603726,40.1163574 1.42232548,40.4612901 C1.36895057,40.5693385 1.30814957,40.6732752 1.2406187,40.7735569 C1.60055129,40.3669476 1.96025181,39.9603383 2.31995233,39.5537289 C2.13963794,39.597131 1.88088563,39.8616555 1.7147272,39.9534853 C0.994629959,40.3507289 0.70872606,41.5001997 -4.50921352e-13,41.8912757 C1.11576781,41.2756509 2.05423808,40.0471425 2.80195103,39.0502644 C3.64945187,37.9199818 3.80586358,36.4315176 3.1296266,35.1872474 C3.26677693,35.439665 1.26034422,36.8410965 1.41489941,37.1252662" id="Fill-106" fill="#435365" transform="translate(1.775769, 38.539262) rotate(-180.000000) translate(-1.775769, -38.539262) "></path>
                        <path d="M21.5116234,18.3667504 C22.28016,18.9127763 23.0486966,19.4585692 23.8172332,20.0045951 C23.7490677,19.9561423 25.1528139,17.7697094 25.052992,17.6988937 C24.2844554,17.1528678 23.5159188,16.606842 22.7473822,16.0610491 C22.8155476,16.1095019 21.4118015,18.2957019 21.5116234,18.3667504" id="Fill-108" fill="#1F68F8" transform="translate(23.282308, 18.032822) rotate(-180.000000) translate(-23.282308, -18.032822) "></path>
                        <path d="M42.727804,51.9473181 C42.3254068,54.8357117 42.9823229,58.0422758 45.5585515,59.6372329 C45.3055845,59.4807706 45.7591958,58.0958743 45.4884923,57.9280081 C44.6788204,57.4269184 44.003281,56.771191 43.5084323,55.9389303 C43.2920468,55.5751442 43.112908,55.185357 42.9747849,54.7832536 C42.7787965,54.2125997 42.7530785,53.9783624 42.7978632,53.6565428 C42.8754605,53.0995737 42.6508719,52.4994976 42.727804,51.9473181" id="Fill-110" fill="#1F68F8" transform="translate(44.098269, 55.792275) rotate(-180.000000) translate(-44.098269, -55.792275) "></path>
                        <path d="M13.7480542,6.72999769 C12.9589871,8.91286241 15.8345255,10.9258473 17.7870432,11.1094271 C21.2794554,11.4377702 24.1687327,8.04999151 26.2419231,5.72807191 C26.1846779,5.79246186 24.8559035,4.74372779 24.7819427,4.82661271 C22.5862477,7.28576053 18.7707438,11.6533166 15.0072186,9.82231327 C15.4612871,10.101108 15.9155847,10.3796744 16.3698822,10.6586975 C15.3355768,9.99790145 14.7821307,8.80988417 15.2080346,7.63145689 C15.2524568,7.508842 13.7121043,6.82909427 13.7480542,6.72999769" id="Fill-112" fill="#A3C1E3" transform="translate(19.928077, 7.976780) rotate(-180.000000) translate(-19.928077, -7.976780) "></path>
                        <path d="M25.1628543,8.04874108 C24.137942,8.48463024 23.0692532,8.64575396 21.9958257,8.33520824 C21.4179304,7.67451099 21.1803187,6.78855558 21.4987139,5.9075509 C21.5424904,5.78670811 20.0245281,5.1167845 20.0599555,5.01912012 C19.2823581,7.17043679 22.1160983,9.15432882 24.040009,9.33525545 C24.8042929,9.40704102 25.5387908,9.29767492 26.2419231,9.06003994 C25.90006,8.85728509 25.5342778,8.53638786 25.1628543,8.04874108" id="Fill-114" fill="#A3C1E3" transform="translate(23.085000, 7.188070) rotate(-180.000000) translate(-23.085000, -7.188070) "></path>
                        <path d="M52.2264136,9.94855268 C51.0020974,11.5463163 49.7780099,13.1440799 48.5539224,14.7418435 C48.4116345,14.9275555 49.2491199,16.6392164 49.3435972,16.8885096 C49.5348395,17.392585 49.7263104,17.8964317 49.9235004,18.3982201 C49.9534678,18.474609 50.2032722,18.9834873 50.1760499,19.0187086 C51.4003662,17.4211737 52.6244537,15.8234101 53.8487699,14.2254178 C53.9910578,14.0399345 53.1535724,12.3280449 53.0590951,12.0787517 C52.8678529,11.5746763 52.6761531,11.0708295 52.4791919,10.5692699 C52.4489958,10.4926523 52.1991913,9.98400263 52.2264136,9.94855268" id="Fill-116" fill="#A3C1E3" transform="translate(51.201346, 14.483631) rotate(-180.000000) translate(-51.201346, -14.483631) "></path>
                        <path d="M34.6274553,39.1307934 C35.5475691,39.1307934 35.5489989,37.7505523 34.6274553,37.7505523 C33.7075799,37.7505523 33.7059118,39.1307934 34.6274553,39.1307934" id="Fill-118" fill="#FFD745" transform="translate(34.627500, 38.440673) rotate(-180.000000) translate(-34.627500, -38.440673) "></path>
                        <path d="M61.150277,6.59653854 L61.3777999,6.59653854 C61.7279577,6.59653854 62.0956348,6.44264166 62.3431798,6.1921279 C62.5798036,5.9528861 62.7581816,5.55997746 62.7429376,5.21629743 C62.7272385,4.85927506 62.6112018,4.4891404 62.3431798,4.24046696 C62.0760678,3.99248364 61.7475247,3.83605631 61.3777999,3.83605631 L61.150277,3.83605631 C60.8001192,3.83605631 60.4324421,3.98995319 60.1848971,4.24046696 C59.9482733,4.47970875 59.7698953,4.87261739 59.7851393,5.21629743 C59.8008384,5.5733198 59.9168751,5.94345445 60.1848971,6.1921279 C60.4520091,6.44011122 60.7805522,6.59653854 61.150277,6.59653854" id="Fill-124" fill="#A3C1E3" transform="translate(61.264038, 5.216297) rotate(-180.000000) translate(-61.264038, -5.216297) "></path>
                        <path d="M50.2983539,74.2283532 L50.5258769,74.2283532 C50.8760347,74.2283532 51.2437117,74.0744564 51.4912567,73.8241726 C51.7278806,73.5847008 51.9062585,73.1920222 51.8910145,72.8481121 C51.8753154,72.4910898 51.7592787,72.1209551 51.4912567,71.8720516 C51.2241448,71.6242983 50.8958292,71.467871 50.5258769,71.467871 L50.2983539,71.467871 C49.9484236,71.467871 49.5807466,71.6217679 49.3329741,71.8720516 C49.0963502,72.1115234 48.9179722,72.504202 48.9332163,72.8481121 C48.9489153,73.2051345 49.064952,73.5752692 49.3329741,73.8241726 C49.600086,74.0719259 49.9286291,74.2283532 50.2983539,74.2283532" id="Fill-126" fill="#1F68F8" transform="translate(50.412115, 72.848112) rotate(-180.000000) translate(-50.412115, -72.848112) "></path>
                        <path d="M33.4436538,55.8908641 C34.3637081,55.8908641 34.3651378,54.510623 33.4436538,54.510623 C32.5235996,54.510623 32.5221699,55.8908641 33.4436538,55.8908641" id="Fill-128" fill="#1F68F8" transform="translate(33.443654, 55.200744) rotate(-180.000000) translate(-33.443654, -55.200744) "></path>
                        <path d="M25.6408304,47.2150628 C26.8257659,46.5953413 27.9215448,45.7714419 28.8069231,45.0088633 C27.0494597,44.6389172 25.1343106,44.5499684 23.7009282,44.2404446 C21.6640768,43.8010915 19.8516068,42.7474078 18.4546664,41.2997438 C18.0650357,42.4735982 17.7549356,43.9987555 18.1127082,45.3386028 C19.0624902,45.910256 20.1094506,46.3370305 21.2242526,46.5773719 C22.4722166,46.8466891 24.0850582,46.9491149 25.6408304,47.2150628" id="Fill-144" fill="#5485BC" transform="translate(23.380962, 44.257403) rotate(-180.000000) translate(-23.380962, -44.257403) "></path>
                        <path d="M29.2686587,26.3083546 C29.4868381,29.8509047 25.6369469,32.1699851 22.4930769,31.5474071 C22.6912981,31.5864877 22.4261716,34.0370414 22.6602268,34.0833507 C24.6199859,34.4714454 26.6938242,33.9017278 28.0355595,32.3827821 C29.2527829,31.0043456 29.4834361,29.3457943 29.3750268,27.5869437 C29.3394196,27.0097714 29.3217294,26.4269517 29.2561848,25.8522643 C29.2058357,25.4119869 29.2638959,26.2288381 29.2686587,26.3083546" id="Fill-146" fill="#435365" transform="translate(25.945962, 29.962049) rotate(-180.000000) translate(-25.945962, -29.962049) "></path>
                        <path d="M23.1114787,33.6044629 C24.3210132,32.2179872 24.5502095,30.549763 24.442485,28.7808818 C24.4071027,28.2003434 24.3895242,27.6141246 24.3243937,27.0360856 C24.2743626,26.5932405 24.3320561,27.4148557 24.3367887,27.4946087 C24.4251319,28.9431145 23.8450421,30.1882614 22.9158618,31.1139418 L22.4930769,34.2013609 C22.7121318,34.0214053 22.9199184,33.8239541 23.1114787,33.6044629" id="Fill-148" fill="#435365" transform="translate(23.479615, 30.553581) rotate(-180.000000) translate(-23.479615, -30.553581) "></path>
                        <path d="M18.1582558,50.1509678 C18.7500353,51.3245991 19.8823804,52.0723732 21.1776171,52.1444201 C21.4014239,52.1570398 21.700585,50.5777428 21.9011538,50.5889858 C20.6061427,50.5167094 19.4737976,49.7691647 18.8817925,48.5953039 C18.9201465,48.6717104 18.5564605,49.2747023 18.5122406,49.3694647 C18.4610267,49.4798296 18.1020785,50.0399145 18.1582558,50.1509678" id="Fill-150" fill="#1F68F8" transform="translate(20.026731, 50.369900) rotate(-180.000000) translate(-20.026731, -50.369900) "></path>
                        <path d="M52.3851923,92.960197 C54.0937536,92.960197 54.0966304,90.1997147 52.3851923,90.1997147 C50.676631,90.1997147 50.6737542,92.960197 52.3851923,92.960197" id="Fill-158" fill="#5485BC" transform="translate(52.385192, 91.579956) rotate(-180.000000) translate(-52.385192, -91.579956) "></path>
                        <path d="M43.9009615,44.2574033 C45.6095229,44.2574033 45.6123996,41.4969211 43.9009615,41.4969211 C42.1924002,41.4969211 42.1895235,44.2574033 43.9009615,44.2574033" id="Fill-160" fill="#5485BC" transform="translate(43.900962, 42.877162) rotate(-180.000000) translate(-43.900962, -42.877162) "></path>
                        <path d="M9.56942308,6.20218394 C11.2780952,6.20218394 11.2807505,3.44170171 9.56942308,3.44170171 C7.86075097,3.44170171 7.8580957,6.20218394 9.56942308,6.20218394" id="Fill-162" fill="#435365" transform="translate(9.569423, 4.821943) rotate(-180.000000) translate(-9.569423, -4.821943) "></path>
                        <path d="M9.56937841,10.3429073 C10.4894921,10.3429073 10.490922,8.96266617 9.56937841,8.96266617 C8.64950301,8.96266617 8.64783484,10.3429073 9.56937841,10.3429073" id="Fill-164" fill="#1F68F8" transform="translate(9.569423, 9.652787) rotate(-180.000000) translate(-9.569423, -9.652787) "></path>
                        <path d="M36.0086538,3.83605631 C36.9287081,3.83605631 36.9301378,2.45581519 36.0086538,2.45581519 C35.0885996,2.45581519 35.0871699,3.83605631 36.0086538,3.83605631" id="Fill-166" fill="#1F68F8" transform="translate(36.008654, 3.145936) rotate(-180.000000) translate(-36.008654, -3.145936) "></path>
                        <path d="M60.5734615,14.7596554 L60.5734615,14.6019601 C60.5734615,14.2312464 60.2557962,13.8756637 59.8828846,13.8926863 C59.5088221,13.9099453 59.1923077,14.204294 59.1923077,14.6019601 L59.1923077,14.7596554 C59.1923077,15.1306056 59.5099731,15.4859518 59.8828846,15.4689292 C60.2569471,15.4519066 60.5734615,15.1573216 60.5734615,14.7596554" id="Fill-168" fill="#1F68F8" transform="translate(59.882885, 14.680808) rotate(-180.000000) translate(-59.882885, -14.680808) "></path>
                        <path d="M70.6361538,3.32326401 L70.6361538,3.1657848 C70.6361538,2.79478647 70.3184885,2.43915774 69.9455769,2.45641897 C69.5715144,2.47344375 69.255,2.76806703 69.255,3.1657848 L69.255,3.32326401 C69.255,3.69426233 69.5726654,4.04989107 69.9455769,4.03262983 C70.3196394,4.01560505 70.6361538,3.72098178 70.6361538,3.32326401" id="Fill-170" fill="#1F68F8" transform="translate(69.945577, 3.244524) rotate(-180.000000) translate(-69.945577, -3.244524) "></path>
                        <path d="M67.1833139,29.4691056 C68.1031893,29.4691056 68.1048575,28.0888645 67.1833139,28.0888645 C66.2632002,28.0888645 66.2617703,29.4691056 67.1833139,29.4691056" id="Fill-172" fill="#1F68F8" transform="translate(67.183269, 28.778985) rotate(-180.000000) translate(-67.183269, -28.778985) "></path>
                        <path d="M13.9102306,44.6517579 C14.3043864,44.6517579 14.3052033,44.060226 13.9102306,44.060226 C13.5158706,44.060226 13.5152579,44.6517579 13.9102306,44.6517579" id="Fill-174" fill="#1F68F8" transform="translate(13.910192, 44.355992) rotate(-180.000000) translate(-13.910192, -44.355992) "></path>
                        <path d="M3.25553865,0.681219473 C3.64989867,0.681219473 3.65051135,0.0896875659 3.25553865,0.0896875659 C2.86138285,0.0896875659 2.86056595,0.681219473 3.25553865,0.681219473" id="Fill-184" fill="#1F68F8" transform="translate(3.255577, 0.385454) rotate(-180.000000) translate(-3.255577, -0.385454) "></path>
                        <path d="M19.6321154,2.45581519 C20.0263222,2.45581519 20.0271392,1.86428329 19.6321154,1.86428329 C19.2379086,1.86428329 19.2370916,2.45581519 19.6321154,2.45581519" id="Fill-186" fill="#1F68F8" transform="translate(19.632115, 2.160049) rotate(-180.000000) translate(-19.632115, -2.160049) "></path>
                        <path d="M31.6679612,37.553375 C32.062168,37.553375 32.0627808,36.9618431 31.6679612,36.9618431 C31.2735501,36.9618431 31.2729374,37.553375 31.6679612,37.553375" id="Fill-188" fill="#FFD745" transform="translate(31.667885, 37.257609) rotate(-180.000000) translate(-31.667885, -37.257609) "></path>
                        <path d="M5.42596154,35.9759566 C5.82027056,35.9759566 5.82088316,35.3844247 5.42596154,35.3844247 C5.03165251,35.3844247 5.03103991,35.9759566 5.42596154,35.9759566" id="Fill-190" fill="#FFD745" transform="translate(5.425962, 35.680191) rotate(-180.000000) translate(-5.425962, -35.680191) "></path>
                        <path d="M7.99099981,37.553375 C8.38515561,37.553375 8.38597251,36.9618431 7.99099981,36.9618431 C7.59663979,36.9618431 7.59602712,37.553375 7.99099981,37.553375" id="Fill-192" fill="#FFD745" transform="translate(7.990962, 37.257609) rotate(-180.000000) translate(-7.990962, -37.257609) "></path>
                        <path d="M16.6724617,24.3424958 C17.0668217,24.3424958 17.0674344,23.7509638 16.6724617,23.7509638 C16.2783059,23.7509638 16.277489,24.3424958 16.6724617,24.3424958" id="Fill-194" fill="#FFD745" transform="translate(16.672500, 24.046730) rotate(-180.000000) translate(-16.672500, -24.046730) "></path>
                        <path d="M11.9370771,24.9340277 C12.3314371,24.9340277 12.3320498,24.3424958 11.9370771,24.3424958 C11.5429213,24.3424958 11.5421044,24.9340277 11.9370771,24.9340277" id="Fill-196" fill="#FFD745" transform="translate(11.937115, 24.638262) rotate(-180.000000) translate(-11.937115, -24.638262) "></path>
                        <path d="M44.3167528,19.1753067 C44.418168,19.1265408 44.5195833,19.0779917 44.6209986,19.0292258 C44.7862848,18.9499 44.8339019,18.7294782 44.744162,18.5842642 C44.6459517,18.425179 44.4403741,18.388117 44.2744011,18.4676595 C44.1729858,18.5164254 44.0715705,18.5654081 43.9701553,18.6139572 C43.804869,18.693283 43.7572519,18.9137048 43.8469918,19.0587021 C43.9452021,19.2177872 44.1507797,19.255066 44.3167528,19.1753067" id="Fill-198" fill="#FFD745" transform="translate(44.295577, 18.821531) rotate(-180.000000) translate(-44.295577, -18.821531) "></path>
                        <path d="M44.8874617,15.2723398 C45.2818217,15.2723398 45.2824344,14.6808079 44.8874617,14.6808079 C44.4933059,14.6808079 44.492489,15.2723398 44.8874617,15.2723398" id="Fill-200" fill="#FFD745" transform="translate(44.887500, 14.976574) rotate(-180.000000) translate(-44.887500, -14.976574) "></path>
                        <path d="M54.5555386,6.39936124 C54.9498987,6.39936124 54.9505113,5.80782933 54.5555386,5.80782933 C54.1613829,5.80782933 54.160566,6.39936124 54.5555386,6.39936124" id="Fill-202" fill="#FFD745" transform="translate(54.555577, 6.103595) rotate(-180.000000) translate(-54.555577, -6.103595) "></path>
                        <path d="M62.8637326,49.343434 C62.9651357,49.2946681 63.0665387,49.2461189 63.1679418,49.1973531 C63.3332082,49.1180272 63.3808196,48.8976054 63.2910905,48.7523914 C63.1926631,48.5933063 62.9873391,48.5562442 62.821386,48.6357868 C62.7199829,48.6845527 62.6185798,48.7335353 62.5171768,48.7820845 C62.3516815,48.8614103 62.304299,49.0818321 62.3937992,49.2268293 C62.4922266,49.3859145 62.6977795,49.4231933 62.8637326,49.343434" id="Fill-208" fill="#FFD745" transform="translate(62.842500, 48.989659) rotate(-180.000000) translate(-62.842500, -48.989659) "></path>
                        <path d="M65.2101923,65.7497292 C65.6043991,65.7497292 65.6052161,65.1581973 65.2101923,65.1581973 C64.8159855,65.1581973 64.8151685,65.7497292 65.2101923,65.7497292" id="Fill-210" fill="#FFD745" transform="translate(65.210192, 65.453963) rotate(-180.000000) translate(-65.210192, -65.453963) "></path>
                        <path d="M52.1879229,65.3553746 C52.5820787,65.3553746 52.5828956,64.7638427 52.1879229,64.7638427 C51.7935629,64.7638427 51.7929502,65.3553746 52.1879229,65.3553746" id="Fill-212" fill="#FFD745" transform="translate(52.187885, 65.059609) rotate(-180.000000) translate(-52.187885, -65.059609) "></path>
                        <path d="M56.3313079,62.5948924 C56.7256679,62.5948924 56.7262806,62.0033605 56.3313079,62.0033605 C55.9371521,62.0033605 55.9363352,62.5948924 56.3313079,62.5948924" id="Fill-214" fill="#FFD745" transform="translate(56.331346, 62.299126) rotate(-180.000000) translate(-56.331346, -62.299126) "></path>
                        <path d="M55.344846,68.7073888 C55.7390018,68.7073888 55.7398187,68.1158569 55.344846,68.1158569 C54.9504859,68.1158569 54.9498733,68.7073888 55.344846,68.7073888" id="Fill-216" fill="#FFD745" transform="translate(55.344808, 68.411623) rotate(-180.000000) translate(-55.344808, -68.411623) "></path>
                        <path d="M17.4886558,32.6239424 L17.6321137,32.6239424 C17.8007359,32.6239424 17.9624756,32.4880873 17.9547327,32.3281765 C17.9467748,32.1678713 17.8129955,32.0324105 17.6321137,32.0324105 L17.4886558,32.0324105 C17.3198186,32.0324105 17.158294,32.1682657 17.1660368,32.3281765 C17.1739948,32.4884816 17.3077741,32.6239424 17.4886558,32.6239424" id="Fill-230" fill="#03D0FF" transform="translate(17.560385, 32.328176) rotate(-180.000000) translate(-17.560385, -32.328176) "></path>
                        <path d="M20.52,36.2447275 L20.52,36.1015403 C20.52,35.9327687 20.3838577,35.7713069 20.2240385,35.7790468 C20.0636273,35.7867866 19.9280769,35.920729 19.9280769,36.1015403 L19.9280769,36.2447275 C19.9280769,36.4134991 20.0642192,36.5749608 20.2240385,36.567221 C20.3844496,36.5594811 20.52,36.4255388 20.52,36.2447275" id="Fill-232" fill="#03D0FF" transform="translate(20.224038, 36.173134) rotate(-180.000000) translate(-20.224038, -36.173134) "></path>
                        <path d="M30.8786538,21.3848362 C31.2728606,21.3848362 31.2736776,20.7933043 30.8786538,20.7933043 C30.4844471,20.7933043 30.4836301,21.3848362 30.8786538,21.3848362" id="Fill-234" fill="#03D0FF" transform="translate(30.878654, 21.089070) rotate(-180.000000) translate(-30.878654, -21.089070) "></path>
                        <path d="M27.5243848,12.3146803 C27.9187448,12.3146803 27.9193575,11.7231484 27.5243848,11.7231484 C27.130229,11.7231484 27.1294121,12.3146803 27.5243848,12.3146803" id="Fill-236" fill="#03D0FF" transform="translate(27.524423, 12.018914) rotate(-180.000000) translate(-27.524423, -12.018914) "></path>
                        <path d="M29.4975,10.3429073 C29.8917068,10.3429073 29.8925238,9.75137538 29.4975,9.75137538 C29.1032932,9.75137538 29.1024762,10.3429073 29.4975,10.3429073" id="Fill-238" fill="#03D0FF" transform="translate(29.497500, 10.047141) rotate(-180.000000) translate(-29.497500, -10.047141) "></path>
                        <path d="M33.0490002,7.97677966 C33.4433602,7.97677966 33.4439729,7.38524775 33.0490002,7.38524775 C32.6548444,7.38524775 32.6540275,7.97677966 33.0490002,7.97677966" id="Fill-240" fill="#03D0FF" transform="translate(33.049038, 7.681014) rotate(-180.000000) translate(-33.049038, -7.681014) "></path>
                        <path d="M48.8336921,57.2711052 C49.2278479,57.2711052 49.2286648,56.6795733 48.8336921,56.6795733 C48.4393321,56.6795733 48.4387194,57.2711052 48.8336921,57.2711052" id="Fill-246" fill="#03D0FF" transform="translate(48.833654, 56.975339) rotate(-180.000000) translate(-48.833654, -56.975339) "></path>
                        <path d="M48.6363079,68.1158569 C49.0306679,68.1158569 49.0312806,67.524325 48.6363079,67.524325 C48.2421521,67.524325 48.2413352,68.1158569 48.6363079,68.1158569" id="Fill-248" fill="#03D0FF" transform="translate(48.636346, 67.820091) rotate(-180.000000) translate(-48.636346, -67.820091) "></path>
                        <path d="M67.5779229,80.9323815 C67.9720787,80.9323815 67.9728956,80.3408496 67.5779229,80.3408496 C67.1835629,80.3408496 67.1829502,80.9323815 67.5779229,80.9323815" id="Fill-250" fill="#03D0FF" transform="translate(67.577885, 80.636616) rotate(-180.000000) translate(-67.577885, -80.636616) "></path>
                        <path d="M59.1923077,88.4968004 L59.1923077,88.3534373 C59.1923077,88.1849265 59.0561654,88.0232938 58.8963462,88.0310315 C58.735935,88.0389842 58.6003846,88.1726751 58.6003846,88.3534373 L58.6003846,88.4968004 C58.6003846,88.6655261 58.7365269,88.8269439 58.8963462,88.8192062 C59.0567573,88.8112535 59.1923077,88.6775626 59.1923077,88.4968004" id="Fill-252" fill="#03D0FF" transform="translate(58.896346, 88.425119) rotate(-180.000000) translate(-58.896346, -88.425119) "></path>
                        <path d="M50.8066925,84.8759276 C51.2010525,84.8759276 51.2016652,84.2843957 50.8066925,84.2843957 C50.4125367,84.2843957 50.4117198,84.8759276 50.8066925,84.8759276" id="Fill-254" fill="#03D0FF" transform="translate(50.806731, 84.580162) rotate(-180.000000) translate(-50.806731, -84.580162) "></path>
                    </g>
                    <g id="Group-63" transform="translate(310.785714, 156.500000) scale(-1, 1) translate(-310.785714, -156.500000) translate(279.285714, 89.000000)">
                        <g id="Group-3" transform="translate(5.405172, 0.000000)">
                            <mask id="mask-7" fill="white">
                                <use xlink:href="#path-6"></use>
                            </mask>
                            <g id="Clip-2"></g>
                            <path d="M13.1786897,32.3039872 C12.0940345,29.7555578 11.6771379,26.9182019 10.0586897,24.6376416 C7.72955172,21.3561225 3.25593103,19.7278504 1.36593103,16.2019681 C0.563172414,14.7044475 0.311275862,12.9914563 0.302830826,11.3127446 C0.287482759,7.99009015 1.338,4.45833132 4.04834483,2.34720926 C7.16265517,-0.0787936765 11.8354138,-0.0450039706 15.483,1.58473721 C19.1295517,3.21447838 21.915931,6.17279162 24.2854138,9.26283574 C26.6543793,12.3528799 28.7285172,15.6681887 31.4874828,18.453146 C33.5331724,20.517746 35.9595517,22.2978269 37.5004138,24.7233401 C41.7247241,31.3730563 37.3783448,39.7866931 29.9207586,42.1867416 C23.3678276,44.2949254 15.4457586,37.6319872 13.1786897,32.3039872" id="Fill-1" fill="#22343D" mask="url(#mask-7)"></path>
                        </g>
                        <path d="M8.94647652,79.2396783 C9.59221068,79.7515786 8.88711647,79.3959686 9.82758621,79.9865087 C9.61027679,82.2393646 7.43047233,83.653891 7.43047233,83.653891 C7.43047233,83.653891 7.3282698,87.242139 6.62988585,87.1664668 C5.92995338,87.0917837 6.38780006,83.7107688 6.38780006,83.7107688 C6.38780006,83.7107688 4.94560881,87.2411498 4.34013625,87.0146278 C3.73517987,86.7890949 5.93976069,82.7384056 5.93976069,82.7384056 C5.93976069,82.7384056 2.85458636,86.784149 2.4344204,86.14415 C2.01477062,85.5046455 4.72984792,81.5998602 4.72984792,81.5998602 C4.72984792,81.5998602 1.38090847,84.9457592 1.00564969,84.4022052 C0.62987473,83.8591457 5.00496887,79.2060462 5.00496887,79.2060462 C2.986727,79.1793384 3.13280435,77.8632353 3.13280435,77.8632353 L8.04936543,78.1550432 C8.04936543,78.1550432 8.64967625,79.0032645 8.94647652,79.2396783" id="Fill-4" fill="#FFC6B2"></path>
                        <path d="M56.3712079,12.0669733 C57.2313904,12.2054119 56.5644718,11.9461976 57.6802272,12.2426471 C59.5188738,10.7408275 59.2828385,8.37257358 59.2828385,8.37257358 C59.2828385,8.37257358 62.3660831,6.14944145 61.8570494,5.71264397 C61.3453755,5.27441436 58.6697803,7.61879956 58.6697803,7.61879956 C58.6697803,7.61879956 60.8500709,4.50488698 60.2671111,4.22275877 C59.6841514,3.94110793 57.5302629,7.89233503 57.5302629,7.89233503 C57.5302629,7.89233503 59.1202012,3.33579731 58.2917013,3.42936268 C57.4637294,3.52292804 55.761846,7.73862051 55.761846,7.73862051 C55.761846,7.73862051 56.5692241,3.42076994 55.8542536,3.48712497 C55.139283,3.55347999 53.9659708,9.20988811 53.9659708,9.20988811 C52.2852091,7.96632805 51.1034483,8.7568599 51.1034483,8.7568599 L54.7802136,12.0340345 C54.7802136,12.0340345 55.9757035,12.0039599 56.3712079,12.0669733" id="Fill-6" fill="#FFC6B2"></path>
                        <path d="M35.7906785,31.8426931 C37.3261134,31.6233379 41.9964595,34.4613669 40.7895629,40.1980874 C40.6880337,40.6799894 40.0096099,41.738912 39.8403945,42.177137 C39.6258814,42.7328045 41.2758621,44.7705753 41.2758621,44.7705753 L36.9991371,46.0323529 C36.820029,44.8283259 37.1319061,43.0710579 35.7526701,42.5449937 C35.2366932,42.3484476 34.6842699,42.2227551 34.1974501,41.9737967 C32.8838176,41.3006869 32.1856086,39.8336278 31.6482845,38.6329978 C31.2473741,37.7361651 30.943307,36.7709053 30.9573649,35.7983659 C30.9932906,33.350032 33.3232571,32.1955055 35.7906785,31.8426931" id="Fill-8" fill="#FFC6B2"></path>
                        <path d="M44.2241379,47.3654166 C44.2302908,45.3429088 43.5355511,44.5689681 41.2293872,44.5632353 C38.9232232,44.5575657 35.8768983,45.3220043 35.8706897,47.3445121 C35.8650269,49.367495 37.4857419,51.9026376 39.7929382,51.9088235 C42.098586,51.9145151 44.2179031,49.3883995 44.2241379,47.3654166" id="Fill-10" fill="#FFC6B2"></path>
                        <path d="M42.2586207,43.7691936 C42.2586207,43.7691936 49.4005784,36.7416437 50.8446564,29.8434593 C52.2892471,22.9457668 54.7421805,11.7529412 54.7421805,11.7529412 L57.446815,12.4725678 C57.446815,12.4725678 58.6858412,27.7809887 57.3960647,30.1213739 C56.1083388,32.4622509 48.7967006,48.7209921 48.9274212,52.8882353 L42.2586207,43.7691936 Z" id="Fill-12" fill="#FFC6B2"></path>
                        <path d="M29.5903289,47.0117647 C29.5903289,47.0117647 27.1206265,47.3919326 23.3214863,55.3725387 C19.5223461,63.352658 7.86206897,78.1977049 7.86206897,78.1977049 L9.74543915,79.8220588 C9.74543915,79.8220588 21.0947825,71.9908914 23.2864736,67.2283266 C25.4786872,62.4657618 28.2551427,56.5451694 29.5615871,56.8055917 C30.8669863,57.0674744 36.4063104,49.9927486 29.5903289,47.0117647" id="Fill-14" fill="#FFC6B2"></path>
                        <path d="M48.7307574,53.8676471 L52.0862069,45.2077164 C52.0862069,45.2077164 51.5842024,41.1401659 45.0143796,39.6661765 L41.2758621,44.7163866 L48.7307574,53.8676471 Z" id="Fill-16" fill="#5485BC"></path>
                        <path d="M30.8405678,46.5220588 C30.8405678,46.5220588 26.8437584,46.8274958 23.5862069,53.4911297 C23.5862069,53.4911297 27.1343308,58.1124604 29.7395343,58.275 C29.7395343,58.275 39.4399384,50.5403724 30.8405678,46.5220588" id="Fill-18" fill="#5485BC"></path>
                        <path d="M41.2758621,125.394275 C41.2758621,125.394275 35.4856986,136.469556 34.8182461,134.414908 C34.1523616,132.358289 34.3886095,127.42674 34.7518667,126.723782 C35.1156466,126.020331 37.478648,122.916176 37.478648,122.916176 L41.2758621,125.394275 Z" id="Fill-20" fill="#FFC6B2"></path>
                        <path d="M41.7228723,72.8728312 L46.9797578,71.0073529 C46.9797578,71.0073529 62.4903066,96.811428 62.4048203,103.959258 C62.3193341,111.107088 40.9362942,125.364706 40.9362942,125.364706 L37.3448276,122.582339 C37.3448276,122.582339 47.5010157,108.692452 51.0335802,105.090737 C52.8001231,103.288661 40.2164371,94.4070339 38.3315687,85.8867974 C36.4467003,77.3665609 41.7228723,72.8728312 41.7228723,72.8728312" id="Fill-22" fill="#003366"></path>
                        <g id="Group-26" transform="translate(0.000000, 115.570588)">
                            <mask id="mask-9" fill="white">
                                <use xlink:href="#path-8"></use>
                            </mask>
                            <g id="Clip-25"></g>
                            <path d="M10.2195939,3.80609206 C10.2195939,3.80609206 -0.434222069,11.2177906 0.0136210345,9.13066412 C0.463527931,7.04255824 3.15265034,2.78505529 3.824415,2.31248912 C4.49824345,1.83992294 8.13413095,0.0652288235 8.13413095,0.0652288235 L10.2195939,3.80609206 Z" id="Fill-24" fill="#FFC6B2" mask="url(#mask-9)"></path>
                        </g>
                        <path d="M27.743711,81.8750373 L43.2154978,73.4558824 C43.2154978,73.4558824 43.7446294,102.841882 40.0179054,109.186241 C36.2911813,115.530111 10.1066825,119.488235 10.1066825,119.488235 L8.35344828,115.53256 C8.35344828,115.53256 24.5269434,106.484159 29.490208,104.716886 C34.4534726,102.950102 27.743711,81.8750373 27.743711,81.8750373" id="Fill-27" fill="#0B4C8E"></path>
                        <path d="M37.023681,68.0691176 C37.023681,68.0691176 25.6427992,71.8185805 27.7859422,82.1894043 C29.9296032,92.560228 33.5465779,94.5132353 33.5465779,94.5132353 L40.0961927,84.4880895 L46.6810345,71.3557319 L40.1366001,70.5598462 L37.023681,68.0691176 Z" id="Fill-29" fill="#0B4C8E"></path>
                        <path d="M42.3658635,43.5838235 C42.3658635,43.5838235 50.6407158,48.0747969 50.612069,58.1730713 C50.612069,58.1730713 49.5267342,69.6832881 47.8131925,72.1947786 C47.8131925,72.1947786 45.0379833,72.8393073 41.5816656,72.1784926 C37.9571223,71.4860931 34.4551581,69.023954 34.4551581,69.023954 L31.6630237,54.9213105 L29.4827586,46.6850627 L30.6777757,46.3090054 L36.9134057,45.6669443 C36.9134057,45.6669443 35.9922681,54.6237218 42.9649107,50.1929571 C44.4327815,49.2592295 41.1559728,44.5797339 41.1559728,44.5797339 L42.3658635,43.5838235 Z" id="Fill-31" fill="#5485BC"></path>
                        <path d="M9.83108851,17.1413263 C9.86464432,17.1134429 10.2568278,17.4455986 10.8770859,18.123118 C11.4947224,18.8016158 12.3372877,19.8333042 13.1829989,21.225521 C14.0318559,22.6118676 14.8723239,24.3709722 15.4716097,26.4128249 C16.0923921,28.439513 16.5086938,30.7176415 17.462937,32.9121195 C17.9584094,33.9961506 18.5587437,35.0053366 19.2733775,35.8976076 C19.994303,36.7840085 20.793875,37.5622998 21.6170408,38.2403084 C23.2990256,39.5611044 25.0612296,40.4695185 26.6315365,40.9949018 C28.2002704,41.5266444 29.5440755,41.7653661 30.478395,41.8514624 C31.4116658,41.9473424 31.9391211,41.9620179 31.9396552,42.0187632 C31.942267,42.0544737 31.4163846,42.1293188 30.4579469,42.1121973 C29.5000335,42.1053488 28.1058947,41.9346237 26.4637574,41.4434832 C24.8205716,40.9591914 22.9639918,40.0630068 21.18868,38.713349 C20.3183263,38.0196865 19.4715665,37.2169361 18.7092206,36.2933573 C17.9531663,35.3648866 17.3145574,34.303358 16.7960153,33.1669842 C15.8019246,30.8732019 15.4092168,28.5750169 14.8309035,26.5752339 C14.2788056,24.5686024 13.5112166,22.8417839 12.7352386,21.4525022 C11.9639794,20.0593071 11.1984876,19.0031595 10.6558273,18.2830811 C10.1100211,17.5644702 9.79019237,17.17508 9.83108851,17.1413263" id="Fill-35" fill="#22343D"></path>
                        <path d="M31.4842545,5.87647059 C31.6124637,5.85804175 31.7370687,7.48921134 32.697866,9.90197283 C33.1777497,11.1037071 33.8913965,12.4864107 34.9165559,13.872538 C35.4288781,14.5665798 36.0184348,15.2503505 36.6857409,15.9316756 C37.348413,16.6159353 38.0702981,17.3109554 38.7525363,18.0905909 C40.1206168,19.664046 41.061848,21.3646686 41.9485001,22.865736 C42.8279436,24.3814765 43.528718,25.8233619 43.8850266,27.1131353 C44.2562671,28.3989958 44.2784076,29.5058434 44.1610112,30.239992 C44.037436,30.9775643 43.8443497,31.3512416 43.8124261,31.3411765 C43.7511534,31.325808 43.8510434,30.9315884 43.8860563,30.2165149 C43.9164352,29.5029088 43.8206645,28.4630687 43.4056577,27.2476395 C43.0035234,26.0273192 42.2811233,24.6519523 41.3795392,23.1684928 C40.4640529,21.6855224 39.5145834,20.0191372 38.2077756,18.5200263 C37.5517972,17.7692481 36.8402099,17.0766735 36.1734187,16.375295 C35.5030232,15.6773403 34.8933855,14.9505283 34.3795186,14.2232272 C33.3471507,12.7671577 32.6582189,11.3159792 32.2267355,10.0614215 C31.785469,8.80735288 31.5975317,7.7494159 31.5084546,7.01966927 C31.4204073,6.28894442 31.4440925,5.88005153 31.4842545,5.87647059" id="Fill-37" fill="#22343D"></path>
                        <path d="M36.9056921,38.1649382 C36.899223,38.1187604 37.1739075,38.0769117 37.4331659,37.7820471 C37.4928799,37.7142234 37.5530916,37.6151335 37.5520963,37.5574112 C37.5506035,37.4953597 37.505818,37.3876115 37.4286874,37.32556 C37.348571,37.2562933 37.2599952,37.222622 37.1420601,37.2341664 C37.0206416,37.2428248 36.8728494,37.3010281 36.679774,37.3289272 C36.2567997,37.3832823 35.9268798,37.1523932 35.7099188,36.9652768 C35.4869865,36.7685401 35.3168015,36.5689172 35.1899092,36.3899781 C34.9371199,36.0296949 34.8584964,35.7694636 34.8973105,35.7502229 C34.942096,35.7271339 35.0948644,35.9426304 35.3795012,36.2447104 C35.5218197,36.3947883 35.7014593,36.5669931 35.9134441,36.7329446 C36.1224432,36.894086 36.3787158,37.0407968 36.6334957,37.0018343 C36.7688474,36.9849986 36.926592,36.9239092 37.1186721,36.9114027 C37.3142355,36.892643 37.531694,36.9797074 37.6511221,37.1095825 C37.7780144,37.2423438 37.8491736,37.3986749 37.8342451,37.5838672 C37.7964262,37.7733887 37.6924243,37.8618962 37.6063366,37.9446315 C37.2346168,38.2592179 36.8937493,38.2077489 36.9056921,38.1649382" id="Fill-39" fill="#FF7B5B"></path>
                        <path d="M38.8189655,38.1970588 L35.3793103,39.3695541 C35.3793103,39.3695541 38.2977576,41.7636052 38.8189655,38.1970588" id="Fill-41" fill="#FFFFFF"></path>
                        <path d="M35.3369126,37.8948651 C35.4726619,38.107899 35.2716485,38.4158062 34.8878955,38.5826971 C34.5041425,38.7491567 34.0833195,38.7120699 33.9475702,38.499036 C33.8118208,38.2864334 34.0128343,37.9785262 34.3965873,37.8116353 C34.7803402,37.6447444 35.2011632,37.6822625 35.3369126,37.8948651" id="Fill-43" fill="#FFB2A0"></path>
                        <path d="M39.2833443,35.9816294 C39.3921535,36.2121615 39.1622748,36.5137297 38.7704595,36.655355 C38.3781332,36.7969803 37.9720143,36.7250507 37.863205,36.4945186 C37.7543958,36.2639866 37.9842745,35.9628652 38.3766007,35.8212399 C38.7684161,35.6796145 39.174535,35.7510974 39.2833443,35.9816294" id="Fill-45" fill="#FFB2A0"></path>
                        <path d="M35.8706897,42.2641888 C35.8706897,42.2641888 36.9507914,42.5290724 38.3275862,42.1147059 C38.3275862,42.1147059 37.6488636,42.9093568 36.5399856,43.0941176 C36.5399856,43.0941176 36.2914183,42.5404331 35.8706897,42.2641888" id="Fill-47" fill="#FFA192"></path>
                        <path d="M36.7667255,35.316904 C36.87016,35.4043487 36.8828774,35.5589613 36.7951276,35.6620363 C36.7073779,35.7651113 36.5526501,35.7777844 36.4487917,35.6907621 C36.3453572,35.6033173 36.3326399,35.4487048 36.4203896,35.3456298 C36.5081393,35.2421323 36.6632911,35.2294592 36.7667255,35.316904" id="Fill-49" fill="#22343D"></path>
                        <path d="M34.8012083,36.7860632 C34.9046428,36.8735141 34.9173601,37.0281374 34.8296104,37.1312197 C34.7422846,37.2343019 34.5871328,37.2469759 34.4832745,37.159525 C34.37984,37.0724966 34.3671226,36.9178733 34.4548724,36.8143686 C34.5426221,36.7112863 34.6977738,36.6986123 34.8012083,36.7860632" id="Fill-51" fill="#22343D"></path>
                        <path d="M36.8500479,33.9580795 C36.8150838,34.0410919 36.4877472,34.0379678 36.1278578,34.1187487 C35.7649543,34.1910498 35.4894611,34.322263 35.4002422,34.2655825 C35.3080093,34.2182743 35.5220139,33.9277309 36.013923,33.8241885 C36.5052293,33.7188609 36.8940545,33.8813153 36.8500479,33.9580795" id="Fill-53" fill="#22343D"></path>
                        <path d="M32.9430375,36.2292758 C32.8730011,36.1789595 32.9828527,35.8891745 33.2495667,35.5993894 C33.5191589,35.3030819 33.8645438,35.2043127 33.9005214,35.2867757 C33.9393773,35.367375 33.7287884,35.5551297 33.4922956,35.8155635 C33.2524449,36.0750655 33.0188304,36.284717 32.9430375,36.2292758" id="Fill-55" fill="#22343D"></path>
                        <path d="M31.6779779,38.5928106 C31.6779779,38.5928106 30.5704168,37.7580233 30.0386601,38.5132843 C29.5074341,39.2685454 32.4310345,39.6661765 32.4310345,39.6661765 L31.6779779,38.5928106 Z" id="Fill-57" fill="#FFC6B2"></path>
                        <path d="M5.40517241,117.039706 C5.40517241,117.039706 3.91833849,117.674247 3.53072805,118.055167 C3.14262066,118.4356 -0.412959784,124.463012 0.0397493408,125.224364 C0.492458465,125.985716 4.05797764,123.401216 4.05797764,123.401216 C4.05797764,123.401216 1.07437107,123.955769 5.40517241,117.039706" id="Fill-59" fill="#003366"></path>
                        <path d="M35.8497029,124.875 C35.8497029,124.875 34.7631338,126.016289 34.5954187,126.540477 C34.4277036,127.063671 34.1275548,134.152879 34.9114186,134.628871 C35.694771,135.105361 37.8362069,131.193577 37.8362069,131.193577 C37.8362069,131.193577 35.2759945,133.142264 35.8497029,124.891396" id="Fill-61" fill="#003366"></path>
                    </g>
                    <g id="Group-11" transform="translate(100.285714, 10.000000)">
                        <path d="M10.9481499,63.3399822 C10.9481499,63.3399822 11.7514962,65.5847971 9.22650644,66.9545477 C6.70118915,68.3239727 2.68413017,69.3133457 2.22465407,71.0634741 C2.22465407,71.0634741 0.579644514,70.4925818 0.0441894804,68.894865 C-0.491593048,67.2964969 3.98461453,65.4704883 5.89784285,64.5954241 C7.81074368,63.7203599 9.3794468,62.8071928 9.30314037,61.475545 L10.9481499,63.3399822 Z" id="Fill-33" fill="#1F68F8" transform="translate(5.534816, 66.269510) rotate(-180.000000) translate(-5.534816, -66.269510) "></path>
                        <path d="M5.63723015,64.5775221 C5.71249659,65.9265763 4.16517366,66.8516798 2.27866721,67.7381824 C1.68945698,68.0146576 0.854096413,68.3854909 -3.08557035e-13,68.8134007 C0.9642503,69.2201955 2.43792195,69.9598824 3.61149694,71.0634741 C4.29987797,70.7629144 4.97210741,70.4560862 5.56196371,70.1278131 C8.05253986,68.7401578 7.25981951,66.46633 7.25981951,66.46633 L5.63723015,64.5775221 Z" id="Fill-35" fill="#1F68F8" transform="translate(3.689878, 67.820498) rotate(-180.000000) translate(-3.689878, -67.820498) "></path>
                        <path d="M2.59407311,72.115081 C2.59407311,72.115081 4.5683764,73.0993692 7.59734569,71.8055252 C12.0339565,69.9104477 13.3403265,71.8055252 13.3403265,71.8055252 C13.3403265,71.8055252 12.7277812,68.8662349 10.1242179,68.5566791 C7.52032689,68.2471233 4.26718371,70.3497852 2.79235556,70.1107486 C1.3175274,69.8717119 0.283836735,69.2526003 0.283836735,69.2526003 L2.59407311,72.115081 Z" id="Fill-37" fill="#5485BC" transform="translate(6.812082, 70.499478) rotate(-180.000000) translate(-6.812082, -70.499478) "></path>
                        <path d="M2.83836735,69.2494413 L5.14105109,72.1148571 C5.14105109,72.1148571 7.10889998,73.0998231 10.1276403,71.8049839 C11.4620797,71.2326299 12.5106844,71.0069361 13.3270281,70.9691548 C13.4149018,70.0554431 13.0568735,69.2278994 12.5606646,68.547504 C9.97998629,68.2923143 6.79268522,70.3451 5.33868531,70.1084695 C3.86867867,69.8688563 2.83836735,69.2494413 2.83836735,69.2494413 Z" id="Fill-39" fill="#5485BC" transform="translate(8.089347, 70.499478) rotate(-180.000000) translate(-8.089347, -70.499478) "></path>
                        <path d="M13.6241633,71.2356547 C13.6241633,71.2356547 4.47122921,75.9033456 3.72573249,77.51403 C3.11429439,78.8347977 3.66753143,80.0874073 3.66753143,80.0874073 C3.66753143,80.0874073 0.347128277,79.036011 0.917367873,76.1505412 C1.25447626,74.444305 3.11952594,73.2549618 5.43056577,71.7310241 C7.74225955,70.2070865 10.7468075,69.0894887 10.7468075,69.0894887 L13.6241633,71.2356547 Z" id="Fill-41" fill="#1F68F8" transform="translate(7.237837, 74.588448) rotate(-180.000000) translate(-7.237837, -74.588448) "></path>
                        <path d="M13.6241633,71.6204033 C12.3733097,71.0615642 11.8089388,69.959595 11.591289,68.8074908 C11.0607676,69.389392 10.6950654,69.9997031 10.5656776,70.6942411 C10.0139607,73.6518769 13.2265095,74.729447 13.2265095,74.729447 C13.2265095,74.729447 12.6915593,73.4456546 13.2828201,72.0920073 C13.3422941,71.9553056 13.4625077,71.7955418 13.6241633,71.6204033" id="Fill-43" fill="#1F68F8" transform="translate(12.063061, 71.768469) rotate(-180.000000) translate(-12.063061, -71.768469) "></path>
                        <path d="M25.8364578,23.6014046 C26.9420352,24.3823168 28.0476125,25.1628958 29.1531899,25.943808 C29.0551305,25.874512 31.0744878,22.7475318 30.9308891,22.6462531 C29.8253118,21.8653409 28.7197344,21.0844288 27.6141571,20.3038497 C27.7122164,20.3731457 25.6928591,23.4997928 25.8364578,23.6014046" id="Fill-108" fill="#1F68F8" transform="translate(28.383673, 23.123829) rotate(-180.000000) translate(-28.383673, -23.123829) "></path>
                        <path d="M56.3569679,71.6274699 C55.7781,75.7583763 56.7231058,80.3443218 60.4291362,82.6253885 C60.0652308,82.4016202 60.7177728,80.4209771 60.3283526,80.1808992 C59.1636002,79.4642535 58.1918038,78.526449 57.4799398,77.3361712 C57.1686587,76.8158936 56.9109588,76.25843 56.712262,75.683352 C56.4303231,74.8672174 56.3933265,74.5322174 56.4577515,74.0719592 C56.5693789,73.2753963 56.2462973,72.4171828 56.3569679,71.6274699" id="Fill-110" fill="#1F68F8" transform="translate(58.328449, 77.126429) rotate(-180.000000) translate(-58.328449, -77.126429) "></path>
                        <path d="M14.6681851,6.95881976 C13.5330735,10.0806968 17.6696757,12.9596161 20.4784675,13.2221672 C25.5024728,13.691755 29.658839,8.84664102 32.6412245,5.52589125 C32.5588745,5.61798009 30.6473677,4.11810756 30.5409716,4.23664746 C27.3823572,7.75365749 21.8935689,14.0000241 16.4795544,11.3813701 C17.1327541,11.7800952 17.7862832,12.1784937 18.4398124,12.5775454 C16.9519136,11.6324918 16.1557544,9.93341998 16.768438,8.24806355 C16.8323415,8.07270288 14.6164693,7.10054514 14.6681851,6.95881976" id="Fill-112" fill="#A3C1E3" transform="translate(23.558449, 8.741935) rotate(-180.000000) translate(-23.558449, -8.741935) "></path>
                        <path d="M31.0889314,8.84485268 C29.6145451,9.46825016 28.0771842,9.69868516 26.5330064,9.25455066 C25.7016759,8.30963842 25.3598598,7.04256775 25.8178869,5.78257748 C25.8808615,5.60975123 23.6971987,4.65164369 23.7481628,4.51196661 C22.6295509,7.58872445 26.7060244,10.4260359 29.4736637,10.6847925 C30.5731234,10.7874584 31.6297345,10.6310458 32.6412245,10.2911863 C32.1494378,10.0012116 31.6232422,9.54227258 31.0889314,8.84485268" id="Fill-114" fill="#A3C1E3" transform="translate(28.099837, 7.613944) rotate(-180.000000) translate(-28.099837, -7.613944) "></path>
                        <path d="M44.7042215,53.2976056 C46.0278499,53.2976056 46.0299068,51.3236202 44.7042215,51.3236202 C43.3809358,51.3236202 43.3785361,53.2976056 44.7042215,53.2976056" id="Fill-118" fill="#FFD745" transform="translate(44.704286, 52.310613) rotate(-180.000000) translate(-44.704286, -52.310613) "></path>
                        <path d="M43.0012653,77.2674282 C44.3248081,77.2674282 44.3268649,75.2934428 43.0012653,75.2934428 C41.6777225,75.2934428 41.6756657,77.2674282 43.0012653,77.2674282" id="Fill-128" fill="#1F68F8" transform="translate(43.001265, 76.280435) rotate(-180.000000) translate(-43.001265, -76.280435) "></path>
                        <path d="M13.9104152,53.8631526 C15.4577741,58.9577123 19.7038692,63.0012098 24.9922984,64.1511954 C29.7440771,65.1846855 38.1799337,64.520206 39.0150529,71.0634741 C38.9850743,70.8298324 40.5989791,69.5906856 40.8117945,69.3882829 C41.0595301,69.1523634 42.6184192,68.0212514 42.5746043,67.6776225 C41.7394851,61.1333782 33.3026401,61.7991593 28.5518497,60.7656692 C23.2637499,59.6156836 19.0173254,55.5721861 17.4699665,50.4776264 C17.5147698,50.6250354 15.8458492,51.9884875 15.6732249,52.1528176 C15.4768813,52.33895 13.8366216,53.6200742 13.9104152,53.8631526" id="Fill-142" fill="#5485BC" transform="translate(28.241755, 60.770550) rotate(-180.000000) translate(-28.241755, -60.770550) "></path>
                        <path d="M31.7765234,64.85952 C33.4811109,63.9732103 35.0574422,62.7948905 36.331102,61.7042701 C33.8029053,61.1751827 31.0478699,61.0479705 28.9858795,60.6052974 C26.0557694,59.9769459 23.448443,58.4699945 21.4388761,56.3995826 C20.8783734,58.0783991 20.4322792,60.2596399 20.9469526,62.175855 C22.3132602,62.9934188 23.8193638,63.6037807 25.4230609,63.9475108 C27.2183179,64.3326813 29.5384692,64.4791682 31.7765234,64.85952" id="Fill-144" fill="#5485BC" transform="translate(28.525592, 60.629551) rotate(-180.000000) translate(-28.525592, -60.629551) "></path>
                        <path d="M36.9953312,34.9592829 C37.3091929,40.0257471 31.7709367,43.3424363 27.2483265,42.4520413 C27.5334774,42.5079333 27.15208,46.0126522 27.4887798,46.0788826 C30.3079888,46.6339257 33.2913063,45.8191302 35.2214579,43.6467731 C36.9724931,41.6753687 37.304299,39.3033511 37.148347,36.7878882 C37.0971242,35.9624312 37.071676,35.1288974 36.977387,34.3069943 C36.9049573,33.6773208 36.9884798,34.8455605 36.9953312,34.9592829" id="Fill-146" fill="#435365" transform="translate(32.215469, 40.184703) rotate(-180.000000) translate(-32.215469, -40.184703) "></path>
                        <path d="M28.1379277,45.3939896 C29.877902,43.4110877 30.207612,41.0252363 30.0526451,38.4954279 C30.0017459,37.6651568 29.9764584,36.8267617 29.8827649,36.0000651 C29.8107928,35.3667194 29.8937877,36.5417723 29.9005959,36.6558331 C30.0276818,38.7274488 29.1931944,40.508226 27.8565232,41.8321103 L27.2483265,46.2476577 C27.5634476,45.9902899 27.8623588,45.7079003 28.1379277,45.3939896" id="Fill-148" fill="#435365" transform="translate(28.667510, 41.030696) rotate(-180.000000) translate(-28.667510, -41.030696) "></path>
                        <path d="M21.012475,69.0583758 C21.8637787,70.7368732 23.4927123,71.8063205 25.3559735,71.9093602 C25.6779305,71.9274086 26.1082883,69.6687385 26.3968163,69.684818 C24.5338797,69.5814501 22.904946,68.5123309 22.0533179,66.8335054 C22.1084919,66.94278 21.5853118,67.8051634 21.5216993,67.9406902 C21.4480257,68.0985313 20.9316612,68.8995503 21.012475,69.0583758" id="Fill-150" fill="#1F68F8" transform="translate(23.700367, 69.371487) rotate(-180.000000) translate(-23.700367, -69.371487) "></path>
                        <path d="M58.0446122,60.6295513 C60.502461,60.6295513 60.5065993,56.6815805 58.0446122,56.6815805 C55.5867635,56.6815805 55.5826251,60.6295513 58.0446122,60.6295513" id="Fill-160" fill="#435365" transform="translate(58.044612, 58.655566) rotate(-180.000000) translate(-58.044612, -58.655566) "></path>
                        <path d="M8.65702041,6.20395409 C11.1150285,6.20395409 11.1188483,2.2559833 8.65702041,2.2559833 C6.19901229,2.2559833 6.19519254,6.20395409 8.65702041,6.20395409" id="Fill-162" fill="#435365" transform="translate(8.657020, 4.229969) rotate(-180.000000) translate(-8.657020, -4.229969) "></path>
                        <path d="M8.65695616,12.1259103 C9.98058459,12.1259103 9.98264151,10.1519249 8.65695616,10.1519249 C7.33367054,10.1519249 7.3312708,12.1259103 8.65695616,12.1259103" id="Fill-164" fill="#1F68F8" transform="translate(8.657020, 11.138918) rotate(-180.000000) translate(-8.657020, -11.138918) "></path>
                        <path d="M46.6911429,2.81997913 C48.0146857,2.81997913 48.0167425,0.845993739 46.6911429,0.845993739 C45.3676,0.845993739 45.3655432,2.81997913 46.6911429,2.81997913" id="Fill-166" fill="#1F68F8" transform="translate(46.691143, 1.832986) rotate(-180.000000) translate(-46.691143, -1.832986) "></path>
                        <path d="M14.9014836,61.1935471 C15.468496,61.1935471 15.4696711,60.3475534 14.9014836,60.3475534 C14.3341775,60.3475534 14.3332962,61.1935471 14.9014836,61.1935471" id="Fill-174" fill="#1F68F8" transform="translate(14.901429, 60.770550) rotate(-180.000000) translate(-14.901429, -60.770550) "></path>
                        <path d="M23.1326939,0.845993739 C23.6997795,0.845993739 23.7009548,1.60345087e-14 23.1326939,1.60345087e-14 C22.5656082,1.60345087e-14 22.5644329,0.845993739 23.1326939,0.845993739" id="Fill-186" fill="#1F68F8" transform="translate(23.132694, 0.422997) rotate(-180.000000) translate(-23.132694, -0.422997) "></path>
                        <path d="M40.4468449,51.0416223 C41.0139306,51.0416223 41.0148121,50.1956285 40.4468449,50.1956285 C39.8794653,50.1956285 39.8785838,51.0416223 40.4468449,51.0416223" id="Fill-188" fill="#FFD745" transform="translate(40.446735, 50.618625) rotate(-180.000000) translate(-40.446735, -50.618625) "></path>
                        <path d="M2.69644898,48.785639 C3.26368174,48.785639 3.26456299,47.9396452 2.69644898,47.9396452 C2.12921622,47.9396452 2.12833497,48.785639 2.69644898,48.785639" id="Fill-190" fill="#FFD745" transform="translate(2.696449, 48.362642) rotate(-180.000000) translate(-2.696449, -48.362642) "></path>
                        <path d="M6.38638159,51.0416223 C6.95339392,51.0416223 6.95456907,50.1956285 6.38638159,50.1956285 C5.81907548,50.1956285 5.81819411,51.0416223 6.38638159,51.0416223" id="Fill-192" fill="#FFD745" transform="translate(6.386327, 50.618625) rotate(-180.000000) translate(-6.386327, -50.618625) "></path>
                        <path d="M18.8750878,32.1477621 C19.4423939,32.1477621 19.4432753,31.3017683 18.8750878,31.3017683 C18.3080755,31.3017683 18.3069003,32.1477621 18.8750878,32.1477621" id="Fill-194" fill="#FFD745" transform="translate(18.875143, 31.724765) rotate(-180.000000) translate(-18.875143, -31.724765) "></path>
                        <path d="M12.0630062,32.9937558 C12.6303123,32.9937558 12.6311936,32.1477621 12.0630062,32.1477621 C11.4959938,32.1477621 11.4948187,32.9937558 12.0630062,32.9937558" id="Fill-196" fill="#FFD745" transform="translate(12.063061, 32.570759) rotate(-180.000000) translate(-12.063061, -32.570759) "></path>
                        <path d="M58.6427482,24.7577811 C58.788639,24.6880373 58.9345298,24.6186036 59.0804206,24.5488599 C59.3181929,24.4354101 59.3866925,24.1201685 59.2575972,23.9124872 C59.116317,23.6849677 58.8205835,23.6319625 58.5818232,23.7457222 C58.4359324,23.815466 58.2900416,23.8855196 58.1441508,23.9549534 C57.9063785,24.0684032 57.837879,24.3836448 57.9669742,24.5910161 C58.1082544,24.8185356 58.4039879,24.8718508 58.6427482,24.7577811" id="Fill-198" fill="#FFD745" transform="translate(58.612286, 24.251821) rotate(-180.000000) translate(-58.612286, -24.251821) "></path>
                        <path d="M59.4637409,19.1758581 C60.031047,19.1758581 60.0319283,18.3298643 59.4637409,18.3298643 C58.8967285,18.3298643 58.8955534,19.1758581 59.4637409,19.1758581" id="Fill-200" fill="#FFD745" transform="translate(59.463796, 18.752861) rotate(-180.000000) translate(-59.463796, -18.752861) "></path>
                        <path d="M20.0492228,43.9916744 L20.255594,43.9916744 C20.4981652,43.9916744 20.7308356,43.7973779 20.7196971,43.5686776 C20.7082493,43.3394133 20.5158012,43.1456807 20.255594,43.1456807 L20.0492228,43.1456807 C19.8063422,43.1456807 19.5739812,43.3399773 19.5851197,43.5686776 C19.5965675,43.7979419 19.7890156,43.9916744 20.0492228,43.9916744" id="Fill-230" fill="#03D0FF" transform="translate(20.152408, 43.568678) rotate(-180.000000) translate(-20.152408, -43.568678) "></path>
                        <path d="M24.4099592,49.1700281 L24.4099592,48.9652456 C24.4099592,48.7238728 24.2141118,48.4929543 23.9842041,48.5040236 C23.7534448,48.5150929 23.558449,48.7066538 23.558449,48.9652456 L23.558449,49.1700281 C23.558449,49.411401 23.7542963,49.6423194 23.9842041,49.6312501 C24.2149633,49.6201808 24.4099592,49.4286199 24.4099592,49.1700281" id="Fill-232" fill="#03D0FF" transform="translate(23.984204, 49.067637) rotate(-180.000000) translate(-23.984204, -49.067637) "></path>
                        <path d="M39.3113878,27.9177934 C39.8784734,27.9177934 39.8796487,27.0717997 39.3113878,27.0717997 C38.7443021,27.0717997 38.7431268,27.9177934 39.3113878,27.9177934" id="Fill-234" fill="#03D0FF" transform="translate(39.311388, 27.494797) rotate(-180.000000) translate(-39.311388, -27.494797) "></path>
                        <path d="M34.4861082,14.9458894 C35.0534143,14.9458894 35.0542957,14.0998957 34.4861082,14.0998957 C33.9190959,14.0998957 33.9179207,14.9458894 34.4861082,14.9458894" id="Fill-236" fill="#03D0FF" transform="translate(34.486163, 14.522893) rotate(-180.000000) translate(-34.486163, -14.522893) "></path>
                        <path d="M37.3245306,12.1259103 C37.8916163,12.1259103 37.8927916,11.2799165 37.3245306,11.2799165 C36.7574449,11.2799165 36.7562696,12.1259103 37.3245306,12.1259103" id="Fill-238" fill="#03D0FF" transform="translate(37.324531, 11.702913) rotate(-180.000000) translate(-37.324531, -11.702913) "></path>
                        <path d="M42.4335368,8.7419353 C43.0008429,8.7419353 43.0017243,7.89594157 42.4335368,7.89594157 C41.8665245,7.89594157 41.8653493,8.7419353 42.4335368,8.7419353" id="Fill-240" fill="#03D0FF" transform="translate(42.433592, 8.318938) rotate(-180.000000) translate(-42.433592, -8.318938) "></path>
                    </g>
                    <g id="Group-50" transform="translate(0.285714, 61.000000)">
                        <path d="M29.9495753,26.996991 C29.9495753,26.996991 28.9171686,27.7123811 29.4336165,28.9051876 C29.9495753,30.0979941 32.2129472,33.6362616 35.2705534,33.5167851 C35.3957529,33.5123782 31.418713,26.996991 31.418713,26.996991 L29.9495753,26.996991 Z" id="Fill-1" fill="#003366"></path>
                        <path d="M25.2722497,92.226417 C25.2722497,92.226417 21.4487748,88.806157 20.2246564,89.4187189 C18.7291094,90.1674058 10.1690837,98.564548 10.503601,102.520494 C10.641027,104.140771 12.524888,102.752591 15.8817992,99.2662277 C19.2396885,95.7803536 23.4676165,97.2742996 23.4676165,97.2742996 L25.2722497,92.226417 Z" id="Fill-3" fill="#1F68F8"></path>
                        <path d="M34.561758,97.9933132 L29.9460051,95.2208705 C29.9460051,95.2208705 17.9816293,106.451173 19.8508185,107.948547 C21.2686049,109.084063 22.101964,108.065575 25.4593642,104.579701 C28.8162754,101.093827 33.0696345,103.097996 33.0696345,103.097996 L34.561758,97.9933132 Z" id="Fill-5" fill="#1F68F8"></path>
                        <polygon id="Fill-7" fill="#F3A683" points="62.7574646 61.046377 63.6231017 73.3524577 44.4088932 68.3408098"></polygon>
                        <path d="M44.4088932,68.7639721 C44.4088932,68.7639721 61.2159459,69.824571 63.4538867,69.0768634 C63.4538867,69.0768634 66.738906,101.383019 60.8941441,104.868403 C55.0493822,108.354767 41.933758,103.250084 41.933758,103.250084 L45.475045,96.2788252 L53.1102574,95.7803536 L53.1102574,83.3308031 L52.5625097,83.4551761 L44.4088932,68.7639721 Z" id="Fill-9" fill="#112129"></path>
                        <path d="M23.3408031,90.8004844 C23.3408031,90.8004844 19.1133642,92.5436663 20.4812664,96.7767583 C20.4812664,96.7767583 34.9119743,108.105972 41.9339048,105.491199 C45.8679073,104.027122 50.093879,92.8516611 53.0502497,83.3048022 L63.4540335,69.0768145 C63.4540335,69.0768145 58.5472896,69.3226227 56.9104041,69.3162572 C53.7818842,69.3045054 44.4090399,68.7639231 44.4090399,68.7639231 C44.4090399,68.7639231 39.5130553,94.4112213 37.7685766,95.0335764 C36.0240978,95.6554418 23.3408031,90.8004844 23.3408031,90.8004844" id="Fill-11" fill="#22343D"></path>
                        <g id="Group-15" transform="translate(47.927928, 0.177746)">
                            <mask id="mask-11" fill="white">
                                <use xlink:href="#path-10"></use>
                            </mask>
                            <g id="Clip-14"></g>
                            <path d="M0.397508366,36.4189871 C0.397508366,36.4189871 10.4701982,26.9568391 12.2107645,24.4664393 C13.9513308,21.9765292 17.6828623,13.635208 22.2829653,10.1493338 L20.0445354,5.41825983 C20.0445354,5.41825983 21.4129266,4.67153162 22.2829653,6.66297005 C22.2829653,6.66297005 25.515166,0.189693446 26.2614723,0.313576879 C27.0082677,0.437949969 24.7698378,5.29388674 24.7698378,5.29388674 C24.7698378,5.29388674 27.8792844,0.811558898 28.749323,0.936421647 C29.6188726,1.0612844 26.5108932,5.97549044 26.5108932,5.97549044 C26.5108932,5.97549044 29.9920257,1.93238569 30.4898893,2.43036771 C30.9872638,2.92834973 27.7540849,5.97549044 27.7540849,5.97549044 C27.7540849,5.97549044 31.2357066,3.97376921 31.6088597,4.63333831 C31.9820129,5.29388674 28.1272381,7.03657898 28.1272381,7.03657898 C28.1272381,7.03657898 27.7540849,9.900098 25.3919228,11.1452979 C25.3919228,11.1452979 20.7140592,23.798546 16.4861313,27.9067753 L2.90443243,42.0392798 L0.397508366,36.4189871 Z" id="Fill-13" fill="#FFC6B2" mask="url(#mask-11)"></path>
                        </g>
                        <path d="M36.3016396,41.5007051 C36.3016396,41.5007051 26.7581133,51.4965802 24.2546126,53.2157689 C21.751112,54.9344679 13.3862214,58.5927016 9.86156242,63.1661058 L5.15728958,60.8808726 C5.15728958,60.8808726 4.39875676,62.2431007 6.3799408,63.132809 C6.3799408,63.132809 -0.115760618,66.3092194 0.00161389961,67.0579062 C0.118499356,67.8061034 4.98905277,65.6104777 4.98905277,65.6104777 C4.98905277,65.6104777 0.483338481,68.6816116 0.599734878,69.5536922 C0.716131274,70.4257728 5.65270785,67.3595355 5.65270785,67.3595355 C5.65270785,67.3595355 1.58274646,70.8072163 2.07571943,71.3096052 C2.56771429,71.8129735 5.64145946,68.6047353 5.64145946,68.6047353 C5.64145946,68.6047353 3.60990219,72.0715128 4.26622136,72.4509977 C4.92156242,72.8304825 6.69831918,68.9881374 6.69831918,68.9881374 C6.69831918,68.9881374 9.56127928,68.6419493 10.8274569,66.2876745 C10.8274569,66.2876745 22.7981905,61.5193865 26.9415109,57.3244878 L41.8382934,46.7562027 L36.3016396,41.5007051 Z" id="Fill-16" fill="#FFC6B2"></path>
                        <path d="M39.8795573,37.5169959 L35.0525302,42.2475802 L36.2766486,47.581423 C36.2766486,47.581423 41.0322728,59.0124852 41.7511918,61.8010866 C42.868695,66.1374964 41.0611274,72.7488565 41.0611274,72.7488565 C41.0611274,72.7488565 49.1232896,72.0790046 56.4591969,71.8297688 C63.7946152,71.5810226 66.194435,69.2149959 66.194435,69.2149959 C66.194435,69.2149959 59.8342033,48.0054667 55.4434183,42.0771793 C51.051166,36.1493815 49.4538945,34.2935783 49.4538945,34.2935783 L42.9880257,35.7086895 L39.8795573,37.5169959 Z" id="Fill-18" fill="#5485BC"></path>
                        <path d="M54.0460746,41.377801 L59.0755727,38.1602594 C59.0755727,38.1602594 59.8438867,34.7130682 53.7785586,30.6474392 L46.6661519,35.1092014 L54.0460746,41.377801 Z" id="Fill-20" fill="#5485BC"></path>
                        <path d="M36.0697761,41.8736775 C33.312453,42.2609968 28.2736628,49.2577177 27.7117323,49.2444969 C27.7117323,49.2444969 31.2579099,55.0386181 34.0670734,55.2266467 C34.0670734,55.2266467 46.4290553,40.4189041 36.0697761,41.8736775" id="Fill-22" fill="#5485BC"></path>
                        <path d="M45.8029601,37.3211817 C45.8029601,37.3211817 41.7951094,34.3230068 41.9340026,33.127752 C41.9692149,32.8266124 42.5247876,32.3379339 42.6690605,31.904097 C43.4461776,29.5698981 39.6994852,23.5554309 37.3974775,22.2877068 C35.5864865,21.2907634 36.3802317,21.202625 32.5689833,23.4702305 C28.7577349,25.7378359 30.9291634,29.6595055 32.631094,31.6871786 C34.240103,33.604189 36.0828829,34.4253452 37.7407979,34.5639184 L40.0980695,39.8061952 L45.8029601,37.3211817 Z" id="Fill-24" fill="#FFC6B2"></path>
                        <path d="M38.5711737,41.4830285 C37.81313,39.6213494 39.2485225,37.276378 41.7774543,36.2436896 C44.3073642,35.2105116 46.9712767,35.8823221 47.7307876,37.7435116 C48.4883423,39.6042113 45.9432716,42.4021162 44.5225508,42.9823608 C43.1018301,43.5626053 39.3287284,43.3437282 38.5711737,41.4830285" id="Fill-26" fill="#FFC6B2"></path>
                        <path d="M32.6312896,31.6872276 C32.6312896,31.6872276 31.3313668,31.6152479 31.187094,32.4829216 C31.042332,33.3501056 33.5697967,33.3501056 34.5087928,32.6993503 L32.6312896,31.6872276 Z" id="Fill-28" fill="#FFC6B2"></path>
                        <path d="M33.2812999,32.4826767 C33.0343243,30.915282 31.366139,29.7498964 31.4492793,28.2226536 C32.2488932,28.2285295 32.7624067,27.2369723 32.3985457,26.3898643 C32.255251,26.0568969 32.012677,25.7714264 31.8576448,25.4433557 C31.7031017,25.1147953 31.6620206,24.6848757 31.8992149,24.499785 C32.0116988,24.4121363 32.1637967,24.3969569 32.3095367,24.3822671 C33.4950193,24.2603423 35.5260875,24.6163236 36.6171815,24.2113766 C37.6559459,23.8260158 38.7690476,23.07586 38.6609653,21.8017703 C38.5665766,20.6926953 37.5879665,19.7927042 36.6890734,19.1135488 C36.1740927,18.7237812 34.7025097,17.7048032 34.147426,17.7968589 C33.2998842,17.93837 33.0944788,19.0699693 33.0333462,20.0179468 C32.4406049,19.452392 31.5661647,19.5434684 31.050695,20.0027675 C30.5352252,20.4625562 30.291184,21.1931257 30.0667053,21.8987226 C29.8417375,22.6043195 29.603565,23.336358 29.0949421,23.8049606 C28.6210425,24.242225 27.8713127,24.572744 27.9696139,25.315555 C28.0864994,26.2008564 29.2416602,26.5152167 29.7757143,27.2702691 C29.644157,27.0851784 29.5326512,28.2672124 29.6084556,28.4679721 C29.8363578,29.0717202 30.4051351,29.471281 30.816435,29.9330284 C31.6923423,30.9172406 32.1207593,31.9078184 33.2812999,32.4826767" id="Fill-30" fill="#003366"></path>
                        <path d="M40.5432124,28.8984793 L37.581462,30.4320877 C37.581462,30.4320877 41.138888,33.017481 40.5432124,28.8984793" id="Fill-32" fill="#FFFFFF"></path>
                        <path d="M38.4756602,28.7899222 C38.4619665,28.7722945 38.5172304,28.6993355 38.6453642,28.6072798 C38.7676293,28.5122862 38.9803707,28.410927 39.1383372,28.2405261 C39.2948366,28.0750217 39.3510785,27.7307923 39.1114389,27.6828058 C38.8625071,27.5976053 38.5798301,27.8840552 38.255583,28.1553256 C38.1753771,28.2224087 38.0961493,28.2885125 38.0174205,28.353637 C37.9440515,28.4207202 37.7895084,28.519631 37.6290965,28.5000447 C37.3234337,28.4505893 37.1933436,28.2459123 37.0759691,28.1097874 C36.8412201,27.8076685 36.6964582,27.4918392 36.6162523,27.2190998 C36.4573076,26.6667658 36.5287104,26.3102949 36.5668571,26.3132148 C36.6201647,26.3107845 36.6377709,26.653545 36.8397529,27.1392856 C36.9414775,27.3806869 37.0935753,27.6544056 37.3151197,27.9134346 C37.4232021,28.0451526 37.5591609,28.1675671 37.6559949,28.1714843 C37.6965869,28.1729533 37.7283758,28.1597325 37.8046692,28.0955874 C37.8824299,28.0304629 37.9606795,27.9643591 38.0399073,27.8972759 C38.2032535,27.765558 38.344592,27.6318814 38.5314131,27.5075083 C38.7128546,27.3850938 38.9720566,27.3072382 39.2033822,27.3865628 C39.4508468,27.4511976 39.5960978,27.7400958 39.5530605,27.9413451 C39.525184,28.1460221 39.4234595,28.2968367 39.3080412,28.4070097 C39.064,28.6111971 38.845879,28.6606525 38.708453,28.7218597 C38.5676036,28.7752324 38.490332,28.8090188 38.4756602,28.7899222" id="Fill-38" fill="#BE715F"></path>
                        <path d="M37.7408958,34.5639674 C37.7408958,34.5639674 39.6301364,34.5747398 40.6552072,33.9430812 C40.6552072,33.9430812 39.788103,35.0090663 38.0529163,35.2852334 L37.7408958,34.5639674 Z" id="Fill-40" fill="#FFA192"></path>
                        <path d="M38.5602188,26.0812819 C38.5431017,26.1748066 38.279009,26.2036964 37.9997555,26.3270901 C37.7170785,26.4416701 37.5121622,26.6115813 37.4334234,26.559188 C37.3527284,26.5160981 37.486242,26.1782342 37.8686873,26.0176264 C38.2506435,25.85506 38.5851609,25.9931435 38.5602188,26.0812819" id="Fill-42" fill="#22343D"></path>
                        <path d="M34.8578842,28.5128248 C34.7864813,28.4599417 34.8984762,28.1553746 35.1703938,27.8503177 C35.4457349,27.539385 35.7973694,27.4355776 35.834538,27.522247 C35.8736628,27.6069578 35.6594543,27.8042899 35.4183475,28.0780086 C35.1733282,28.350748 34.9351557,28.5706044 34.8578842,28.5128248" id="Fill-44" fill="#22343D"></path>
                        <path d="M33.4226873,28.0427533 C33.2696113,27.9291527 33.1502806,27.4429224 33.736175,26.7877602 C34.3274492,26.1179083 34.9881699,26.2359159 35.0673977,26.4219858 C35.1524942,26.6046282 34.932417,26.8646365 34.4135238,27.4536949 C33.8868057,28.0407946 33.5884788,28.167616 33.4226873,28.0427533" id="Fill-46" fill="#003366"></path>
                        <path d="M36.5328185,25.4620116 C36.4482111,25.3033625 36.5416216,24.8416152 37.3035779,24.51991 C38.0762934,24.1874323 38.5912741,24.554186 38.5839382,24.7446629 C38.582471,24.9341605 38.2914801,25.0668578 37.6131532,25.3596732 C36.9289575,25.6471023 36.6242728,25.6348609 36.5328185,25.4620116" id="Fill-48" fill="#003366"></path>
                    </g>
                </g>
            </g>
        </g>
    </g>
</svg>